<svg width="57" height="57" viewBox="0 0 57 57" fill="none" xmlns="http://www.w3.org/2000/svg">
<g clip-path="url(#clip0_1_550)">
<path d="M31 18.02H27V25.02H31V18.02Z" fill="#013A4C"/>
<path d="M31 0.97998H27V7.97998H31V0.97998Z" fill="#013A4C"/>
<path d="M23.98 11H16.98V15H23.98V11Z" fill="#013A4C"/>
<path d="M41.02 11H34.02V15H41.02V11Z" fill="#013A4C"/>
</g>
<path d="M12.1949 47.127C11.8436 48.0903 11.2656 48.8383 10.4609 49.371C9.65628 49.9037 8.72694 50.17 7.67294 50.17C6.60761 50.17 5.68394 49.9377 4.90194 49.473C4.13127 48.997 3.53061 48.3283 3.09994 47.467C2.68061 46.6057 2.47094 45.58 2.47094 44.39C2.47094 43.2 2.68061 42.1743 3.09994 41.313C3.53061 40.4517 4.13127 39.7887 4.90194 39.324C5.68394 38.848 6.59627 38.61 7.63894 38.61C8.72694 38.61 9.63361 38.8367 10.3589 39.29C11.0956 39.732 11.6396 40.378 11.9909 41.228L10.6479 41.857C10.3986 41.211 10.0359 40.7237 9.55994 40.395C9.09528 40.055 8.48894 39.885 7.74094 39.885C6.98161 39.885 6.31294 40.0663 5.73494 40.429C5.15694 40.7803 4.70361 41.2903 4.37494 41.959C4.05761 42.6277 3.89894 43.438 3.89894 44.39C3.89894 45.7953 4.23327 46.9003 4.90194 47.705C5.58194 48.4983 6.50561 48.895 7.67294 48.895C8.42094 48.895 9.07261 48.708 9.62794 48.334C10.1833 47.9487 10.5856 47.3763 10.8349 46.617L12.1949 47.127ZM14.5502 50V41.5H15.6552L15.8422 42.894C16.3182 41.8513 17.2249 41.33 18.5622 41.33C18.7096 41.33 18.8682 41.3413 19.0382 41.364C19.2196 41.3867 19.3726 41.432 19.4972 41.5L19.2592 42.741C19.1346 42.6957 18.9986 42.6617 18.8512 42.639C18.7039 42.6163 18.4942 42.605 18.2222 42.605C17.8709 42.605 17.5139 42.707 17.1512 42.911C16.7999 43.115 16.5052 43.4267 16.2672 43.846C16.0292 44.254 15.9102 44.7753 15.9102 45.41V50H14.5502ZM24.7771 50.17C23.9724 50.17 23.2527 49.9943 22.6181 49.643C21.9947 49.2917 21.5074 48.7873 21.1561 48.13C20.8047 47.4613 20.6291 46.668 20.6291 45.75C20.6291 44.832 20.8047 44.0443 21.1561 43.387C21.5074 42.7183 21.9891 42.2083 22.6011 41.857C23.2131 41.5057 23.9101 41.33 24.6921 41.33C25.4854 41.33 26.1597 41.5 26.7151 41.84C27.2817 42.18 27.7124 42.6447 28.0071 43.234C28.3017 43.812 28.4491 44.4637 28.4491 45.189C28.4491 45.3817 28.4434 45.5573 28.4321 45.716C28.4207 45.8747 28.4037 46.0163 28.3811 46.141H21.9721C22.0401 47.0363 22.3177 47.7333 22.8051 48.232C23.2924 48.7307 23.9384 48.98 24.7431 48.98C25.3664 48.98 25.8707 48.861 26.2561 48.623C26.6527 48.385 26.9701 48.062 27.2081 47.654L28.2791 48.283C27.9617 48.861 27.5027 49.32 26.9021 49.66C26.3127 50 25.6044 50.17 24.7771 50.17ZM24.6581 42.52C23.9441 42.52 23.3547 42.7353 22.8901 43.166C22.4367 43.5853 22.1477 44.1747 22.0231 44.934H27.0891C27.0551 44.1633 26.8171 43.5683 26.3751 43.149C25.9331 42.7297 25.3607 42.52 24.6581 42.52ZM35.9996 44.509C35.9996 43.8743 35.8296 43.387 35.4896 43.047C35.1496 42.6957 34.6679 42.52 34.0446 42.52C33.4553 42.52 32.9566 42.6503 32.5486 42.911C32.1406 43.1603 31.8403 43.5683 31.6476 44.135L30.5426 43.455C30.7693 42.8203 31.1886 42.3103 31.8006 41.925C32.4126 41.5283 33.1719 41.33 34.0786 41.33C34.6906 41.33 35.2459 41.4377 35.7446 41.653C36.2433 41.857 36.6343 42.1743 36.9176 42.605C37.2123 43.0243 37.3596 43.5683 37.3596 44.237V48.351C37.3596 48.759 37.5749 48.963 38.0056 48.963C38.2209 48.963 38.4306 48.9347 38.6346 48.878L38.5666 49.949C38.3399 50.0623 38.0453 50.119 37.6826 50.119C37.2633 50.119 36.9006 50.017 36.5946 49.813C36.2999 49.609 36.1073 49.2973 36.0166 48.878C35.7219 49.32 35.3196 49.6487 34.8096 49.864C34.2996 50.068 33.7953 50.17 33.2966 50.17C32.7979 50.17 32.3333 50.085 31.9026 49.915C31.4719 49.745 31.1263 49.49 30.8656 49.15C30.6163 48.7987 30.4916 48.368 30.4916 47.858C30.4916 47.2233 30.7013 46.702 31.1206 46.294C31.5513 45.8747 32.1463 45.5913 32.9056 45.444L35.9996 44.832V44.509ZM31.8856 47.79C31.8856 48.1413 32.0216 48.4303 32.2936 48.657C32.5769 48.8723 32.9736 48.98 33.4836 48.98C33.9256 48.98 34.3336 48.9063 34.7076 48.759C35.0929 48.6003 35.4046 48.368 35.6426 48.062C35.8806 47.7447 35.9996 47.3423 35.9996 46.855V45.954L33.5346 46.464C32.9793 46.5773 32.5656 46.736 32.2936 46.94C32.0216 47.144 31.8856 47.4273 31.8856 47.79ZM45.4325 41.5V42.673H42.3385V47.654C42.3385 48.0733 42.4575 48.385 42.6955 48.589C42.9335 48.793 43.2395 48.895 43.6135 48.895C43.9421 48.895 44.2255 48.8383 44.4635 48.725C44.7015 48.6117 44.9168 48.4587 45.1095 48.266L45.5855 49.405C45.3248 49.643 45.0131 49.83 44.6505 49.966C44.2991 50.102 43.8911 50.17 43.4265 50.17C42.9958 50.17 42.5935 50.0963 42.2195 49.949C41.8455 49.7903 41.5451 49.5467 41.3185 49.218C41.1031 48.878 40.9898 48.436 40.9785 47.892V42.673H39.2785V41.5H40.9785V39.46L42.3385 39.086V41.5H45.4325ZM51.0075 50.17C50.2029 50.17 49.4832 49.9943 48.8485 49.643C48.2252 49.2917 47.7379 48.7873 47.3865 48.13C47.0352 47.4613 46.8595 46.668 46.8595 45.75C46.8595 44.832 47.0352 44.0443 47.3865 43.387C47.7379 42.7183 48.2195 42.2083 48.8315 41.857C49.4435 41.5057 50.1405 41.33 50.9225 41.33C51.7159 41.33 52.3902 41.5 52.9455 41.84C53.5122 42.18 53.9429 42.6447 54.2375 43.234C54.5322 43.812 54.6795 44.4637 54.6795 45.189C54.6795 45.3817 54.6739 45.5573 54.6625 45.716C54.6512 45.8747 54.6342 46.0163 54.6115 46.141H48.2025C48.2705 47.0363 48.5482 47.7333 49.0355 48.232C49.5229 48.7307 50.1689 48.98 50.9735 48.98C51.5969 48.98 52.1012 48.861 52.4865 48.623C52.8832 48.385 53.2005 48.062 53.4385 47.654L54.5095 48.283C54.1922 48.861 53.7332 49.32 53.1325 49.66C52.5432 50 51.8349 50.17 51.0075 50.17ZM50.8885 42.52C50.1745 42.52 49.5852 42.7353 49.1205 43.166C48.6672 43.5853 48.3782 44.1747 48.2535 44.934H53.3195C53.2855 44.1633 53.0475 43.5683 52.6055 43.149C52.1635 42.7297 51.5912 42.52 50.8885 42.52Z" fill="#013A4C"/>
<defs>
<clipPath id="clip0_1_550">
<rect width="24" height="24" fill="white" transform="translate(17 1)"/>
</clipPath>
</defs>
</svg>
