<svg width="102" height="57" viewBox="0 0 102 57" fill="none" xmlns="http://www.w3.org/2000/svg">
<path d="M11.8774 46.958C11.5054 47.978 10.8934 48.77 10.0414 49.334C9.18942 49.898 8.20542 50.18 7.08942 50.18C5.96142 50.18 4.98342 49.934 4.15542 49.442C3.33942 48.938 2.70342 48.23 2.24742 47.318C1.80342 46.406 1.58142 45.32 1.58142 44.06C1.58142 42.8 1.80342 41.714 2.24742 40.802C2.70342 39.89 3.33942 39.188 4.15542 38.696C4.98342 38.192 5.94942 37.94 7.05342 37.94C8.20542 37.94 9.16542 38.18 9.93342 38.66C10.7134 39.128 11.2894 39.812 11.6614 40.712L10.2394 41.378C9.97542 40.694 9.59142 40.178 9.08742 39.83C8.59542 39.47 7.95342 39.29 7.16142 39.29C6.35742 39.29 5.64942 39.482 5.03742 39.866C4.42542 40.238 3.94542 40.778 3.59742 41.486C3.26142 42.194 3.09342 43.052 3.09342 44.06C3.09342 45.548 3.44742 46.718 4.15542 47.57C4.87542 48.41 5.85342 48.83 7.08942 48.83C7.88142 48.83 8.57142 48.632 9.15942 48.236C9.74742 47.828 10.1734 47.222 10.4374 46.418L11.8774 46.958ZM18.0973 40.82C18.9493 40.82 19.6993 41.006 20.3473 41.378C21.0073 41.75 21.5233 42.29 21.8953 42.998C22.2673 43.694 22.4533 44.528 22.4533 45.5C22.4533 46.472 22.2673 47.312 21.8953 48.02C21.5233 48.716 21.0073 49.25 20.3473 49.622C19.6993 49.994 18.9493 50.18 18.0973 50.18C17.2573 50.18 16.5073 49.994 15.8473 49.622C15.1873 49.25 14.6713 48.716 14.2993 48.02C13.9273 47.312 13.7413 46.472 13.7413 45.5C13.7413 44.528 13.9273 43.694 14.2993 42.998C14.6713 42.29 15.1873 41.75 15.8473 41.378C16.5073 41.006 17.2573 40.82 18.0973 40.82ZM18.0973 42.062C17.1853 42.062 16.4713 42.368 15.9553 42.98C15.4393 43.592 15.1813 44.432 15.1813 45.5C15.1813 46.568 15.4393 47.408 15.9553 48.02C16.4713 48.632 17.1853 48.938 18.0973 48.938C19.0093 48.938 19.7233 48.632 20.2393 48.02C20.7553 47.408 21.0133 46.568 21.0133 45.5C21.0133 44.432 20.7553 43.592 20.2393 42.98C19.7233 42.368 19.0093 42.062 18.0973 42.062ZM26.5322 36.86V47.714C26.5322 48.17 26.6162 48.488 26.7842 48.668C26.9522 48.836 27.2222 48.92 27.5942 48.92C27.8342 48.92 28.0322 48.902 28.1882 48.866C28.3442 48.83 28.5542 48.764 28.8182 48.668L28.5842 49.928C28.1882 50.096 27.7442 50.18 27.2522 50.18C25.8122 50.18 25.0922 49.376 25.0922 47.768V36.86H26.5322ZM32.0342 36.86V47.714C32.0342 48.17 32.1182 48.488 32.2862 48.668C32.4542 48.836 32.7242 48.92 33.0962 48.92C33.3362 48.92 33.5342 48.902 33.6902 48.866C33.8462 48.83 34.0562 48.764 34.3202 48.668L34.0862 49.928C33.6902 50.096 33.2462 50.18 32.7542 50.18C31.3142 50.18 30.5942 49.376 30.5942 47.768V36.86H32.0342ZM41.4241 44.186C41.4241 43.514 41.2441 42.998 40.8841 42.638C40.5241 42.266 40.0141 42.08 39.3541 42.08C38.7301 42.08 38.2021 42.218 37.7701 42.494C37.3381 42.758 37.0201 43.19 36.8161 43.79L35.6461 43.07C35.8861 42.398 36.3301 41.858 36.9781 41.45C37.6261 41.03 38.4301 40.82 39.3901 40.82C40.0381 40.82 40.6261 40.934 41.1541 41.162C41.6821 41.378 42.0961 41.714 42.3961 42.17C42.7081 42.614 42.8641 43.19 42.8641 43.898V48.254C42.8641 48.686 43.0921 48.902 43.5481 48.902C43.7761 48.902 43.9981 48.872 44.2141 48.812L44.1421 49.946C43.9021 50.066 43.5901 50.126 43.2061 50.126C42.7621 50.126 42.3781 50.018 42.0541 49.802C41.7421 49.586 41.5381 49.256 41.4421 48.812C41.1301 49.28 40.7041 49.628 40.1641 49.856C39.6241 50.072 39.0901 50.18 38.5621 50.18C38.0341 50.18 37.5421 50.09 37.0861 49.91C36.6301 49.73 36.2641 49.46 35.9881 49.1C35.7241 48.728 35.5921 48.272 35.5921 47.732C35.5921 47.06 35.8141 46.508 36.2581 46.076C36.7141 45.632 37.3441 45.332 38.1481 45.176L41.4241 44.528V44.186ZM37.0681 47.66C37.0681 48.032 37.2121 48.338 37.5001 48.578C37.8001 48.806 38.2201 48.92 38.7601 48.92C39.2281 48.92 39.6601 48.842 40.0561 48.686C40.4641 48.518 40.7941 48.272 41.0461 47.948C41.2981 47.612 41.4241 47.186 41.4241 46.67V45.716L38.8141 46.256C38.2261 46.376 37.7881 46.544 37.5001 46.76C37.2121 46.976 37.0681 47.276 37.0681 47.66ZM50.7735 50.18C50.0895 50.18 49.4775 50.018 48.9375 49.694C48.3975 49.37 47.9895 48.944 47.7135 48.416L47.6235 50H46.3635V36.86H47.8035V42.404C48.0915 41.936 48.4935 41.558 49.0095 41.27C49.5375 40.97 50.1315 40.82 50.7915 40.82C51.5355 40.82 52.2195 41.006 52.8435 41.378C53.4675 41.75 53.9655 42.284 54.3375 42.98C54.7095 43.676 54.8955 44.516 54.8955 45.5C54.8955 46.472 54.7035 47.312 54.3195 48.02C53.9475 48.716 53.4495 49.25 52.8255 49.622C52.2015 49.994 51.5175 50.18 50.7735 50.18ZM50.6295 48.92C51.5175 48.92 52.2075 48.608 52.6995 47.984C53.2035 47.36 53.4555 46.532 53.4555 45.5C53.4555 44.468 53.2095 43.64 52.7175 43.016C52.2255 42.392 51.5355 42.08 50.6475 42.08C49.8075 42.08 49.1235 42.398 48.5955 43.034C48.0675 43.67 47.8035 44.504 47.8035 45.536C47.8035 46.568 48.0615 47.39 48.5775 48.002C49.1055 48.614 49.7895 48.92 50.6295 48.92ZM61.3746 40.82C62.2266 40.82 62.9766 41.006 63.6246 41.378C64.2846 41.75 64.8006 42.29 65.1726 42.998C65.5446 43.694 65.7306 44.528 65.7306 45.5C65.7306 46.472 65.5446 47.312 65.1726 48.02C64.8006 48.716 64.2846 49.25 63.6246 49.622C62.9766 49.994 62.2266 50.18 61.3746 50.18C60.5346 50.18 59.7846 49.994 59.1246 49.622C58.4646 49.25 57.9486 48.716 57.5766 48.02C57.2046 47.312 57.0186 46.472 57.0186 45.5C57.0186 44.528 57.2046 43.694 57.5766 42.998C57.9486 42.29 58.4646 41.75 59.1246 41.378C59.7846 41.006 60.5346 40.82 61.3746 40.82ZM61.3746 42.062C60.4626 42.062 59.7486 42.368 59.2326 42.98C58.7166 43.592 58.4586 44.432 58.4586 45.5C58.4586 46.568 58.7166 47.408 59.2326 48.02C59.7486 48.632 60.4626 48.938 61.3746 48.938C62.2866 48.938 63.0006 48.632 63.5166 48.02C64.0326 47.408 64.2906 46.568 64.2906 45.5C64.2906 44.432 64.0326 43.592 63.5166 42.98C63.0006 42.368 62.2866 42.062 61.3746 42.062ZM68.4416 50V41H69.6116L69.8096 42.476C70.3136 41.372 71.2736 40.82 72.6896 40.82C72.8456 40.82 73.0136 40.832 73.1936 40.856C73.3856 40.88 73.5476 40.928 73.6796 41L73.4276 42.314C73.2956 42.266 73.1516 42.23 72.9956 42.206C72.8396 42.182 72.6176 42.17 72.3296 42.17C71.9576 42.17 71.5796 42.278 71.1956 42.494C70.8236 42.71 70.5116 43.04 70.2596 43.484C70.0076 43.916 69.8816 44.468 69.8816 45.14V50H68.4416ZM80.7991 44.186C80.7991 43.514 80.6191 42.998 80.2591 42.638C79.8991 42.266 79.3891 42.08 78.7291 42.08C78.1051 42.08 77.5771 42.218 77.1451 42.494C76.7131 42.758 76.3951 43.19 76.1911 43.79L75.0211 43.07C75.2611 42.398 75.7051 41.858 76.3531 41.45C77.0011 41.03 77.8051 40.82 78.7651 40.82C79.4131 40.82 80.0011 40.934 80.5291 41.162C81.0571 41.378 81.4711 41.714 81.7711 42.17C82.0831 42.614 82.2391 43.19 82.2391 43.898V48.254C82.2391 48.686 82.4671 48.902 82.9231 48.902C83.1511 48.902 83.3731 48.872 83.5891 48.812L83.5171 49.946C83.2771 50.066 82.9651 50.126 82.5811 50.126C82.1371 50.126 81.7531 50.018 81.4291 49.802C81.1171 49.586 80.9131 49.256 80.8171 48.812C80.5051 49.28 80.0791 49.628 79.5391 49.856C78.9991 50.072 78.4651 50.18 77.9371 50.18C77.4091 50.18 76.9171 50.09 76.4611 49.91C76.0051 49.73 75.6391 49.46 75.3631 49.1C75.0991 48.728 74.9671 48.272 74.9671 47.732C74.9671 47.06 75.1891 46.508 75.6331 46.076C76.0891 45.632 76.7191 45.332 77.5231 45.176L80.7991 44.528V44.186ZM76.4431 47.66C76.4431 48.032 76.5871 48.338 76.8751 48.578C77.1751 48.806 77.5951 48.92 78.1351 48.92C78.6031 48.92 79.0351 48.842 79.4311 48.686C79.8391 48.518 80.1691 48.272 80.4211 47.948C80.6731 47.612 80.7991 47.186 80.7991 46.67V45.716L78.1891 46.256C77.6011 46.376 77.1631 46.544 76.8751 46.76C76.5871 46.976 76.4431 47.276 76.4431 47.66ZM90.7869 41V42.242H87.5109V47.516C87.5109 47.96 87.6369 48.29 87.8889 48.506C88.1409 48.722 88.4649 48.83 88.8609 48.83C89.2089 48.83 89.5089 48.77 89.7609 48.65C90.0129 48.53 90.2409 48.368 90.4449 48.164L90.9489 49.37C90.6729 49.622 90.3429 49.82 89.9589 49.964C89.5869 50.108 89.1549 50.18 88.6629 50.18C88.2069 50.18 87.7809 50.102 87.3849 49.946C86.9889 49.778 86.6709 49.52 86.4309 49.172C86.2029 48.812 86.0829 48.344 86.0709 47.768V42.242H84.2709V41H86.0709V38.84L87.5109 38.444V41H90.7869ZM96.6899 50.18C95.8379 50.18 95.0759 49.994 94.4039 49.622C93.7439 49.25 93.2279 48.716 92.8559 48.02C92.4839 47.312 92.2979 46.472 92.2979 45.5C92.2979 44.528 92.4839 43.694 92.8559 42.998C93.2279 42.29 93.7379 41.75 94.3859 41.378C95.0339 41.006 95.7719 40.82 96.5999 40.82C97.4399 40.82 98.1539 41 98.7419 41.36C99.3419 41.72 99.7979 42.212 100.11 42.836C100.422 43.448 100.578 44.138 100.578 44.906C100.578 45.11 100.572 45.296 100.56 45.464C100.548 45.632 100.53 45.782 100.506 45.914H93.7199C93.7919 46.862 94.0859 47.6 94.6019 48.128C95.1179 48.656 95.8019 48.92 96.6539 48.92C97.3139 48.92 97.8479 48.794 98.2559 48.542C98.6759 48.29 99.0119 47.948 99.2639 47.516L100.398 48.182C100.062 48.794 99.5759 49.28 98.9399 49.64C98.3159 50 97.5659 50.18 96.6899 50.18ZM96.5639 42.08C95.8079 42.08 95.1839 42.308 94.6919 42.764C94.2119 43.208 93.9059 43.832 93.7739 44.636H99.1379C99.1019 43.82 98.8499 43.19 98.3819 42.746C97.9139 42.302 97.3079 42.08 96.5639 42.08Z" fill="#013A4C"/>
<g clip-path="url(#clip0_1_571)">
<path d="M53 18.02H49V25.02H53V18.02Z" fill="#013A4C"/>
<path d="M53 0.97998H49V7.97998H53V0.97998Z" fill="#013A4C"/>
<path d="M45.98 11H38.98V15H45.98V11Z" fill="#013A4C"/>
<path d="M63.02 11H56.02V15H63.02V11Z" fill="#013A4C"/>
<path d="M46.0312 15.1386L41.0815 20.0884L43.9099 22.9168L48.8597 17.9671L46.0312 15.1386Z" fill="#013A4C"/>
<path d="M58.0912 3.08321L53.1415 8.03296L55.9699 10.8614L60.9197 5.91164L58.0912 3.08321Z" fill="#013A4C"/>
<path d="M43.9122 3.08087L41.0838 5.9093L46.0335 10.859L48.8619 8.03062L43.9122 3.08087Z" fill="#013A4C"/>
<path d="M55.9676 15.1409L53.1392 17.9694L58.0889 22.9191L60.9174 20.0907L55.9676 15.1409Z" fill="#013A4C"/>
</g>
<defs>
<clipPath id="clip0_1_571">
<rect width="24" height="24" fill="white" transform="translate(39 1)"/>
</clipPath>
</defs>
</svg>
