<svg width="68" height="57" viewBox="0 0 68 57" fill="none" xmlns="http://www.w3.org/2000/svg">
<g clip-path="url(#clip0_1_564)">
<path d="M36 15H32V25H36V15Z" fill="#013A4C"/>
<path d="M36 1H32V11H36V1Z" fill="#013A4C"/>
<path d="M32 10.98H22V14.98H32V10.98Z" fill="#013A4C"/>
<path d="M46 10.98H36V14.98H46V10.98Z" fill="#013A4C"/>
</g>
<path d="M0.761945 50L5.38795 38.12H7.09795L11.7059 50H10.1759L8.91595 46.706H3.53395L2.27395 50H0.761945ZM5.67595 41.09L4.05595 45.356H8.39395L6.79195 41.144L6.23395 39.488H6.19795L5.67595 41.09ZM13.8508 50V41H15.1108L15.2008 42.404C15.5128 41.84 15.9388 41.438 16.4788 41.198C17.0188 40.946 17.6008 40.82 18.2248 40.82C18.8728 40.82 19.4608 40.946 19.9888 41.198C20.5168 41.438 20.9368 41.81 21.2488 42.314C21.5728 42.818 21.7348 43.46 21.7348 44.24V50H20.2948V44.744C20.2948 43.748 20.0788 43.058 19.6468 42.674C19.2268 42.278 18.7048 42.08 18.0808 42.08C17.6488 42.08 17.2168 42.182 16.7848 42.386C16.3528 42.59 15.9928 42.92 15.7048 43.376C15.4288 43.832 15.2908 44.444 15.2908 45.212V50H13.8508ZM30.2513 44.186C30.2513 43.514 30.0713 42.998 29.7113 42.638C29.3513 42.266 28.8413 42.08 28.1813 42.08C27.5573 42.08 27.0293 42.218 26.5973 42.494C26.1653 42.758 25.8473 43.19 25.6433 43.79L24.4733 43.07C24.7133 42.398 25.1573 41.858 25.8053 41.45C26.4533 41.03 27.2573 40.82 28.2173 40.82C28.8653 40.82 29.4533 40.934 29.9813 41.162C30.5093 41.378 30.9233 41.714 31.2233 42.17C31.5353 42.614 31.6913 43.19 31.6913 43.898V48.254C31.6913 48.686 31.9193 48.902 32.3753 48.902C32.6033 48.902 32.8253 48.872 33.0413 48.812L32.9693 49.946C32.7293 50.066 32.4173 50.126 32.0333 50.126C31.5893 50.126 31.2053 50.018 30.8813 49.802C30.5693 49.586 30.3653 49.256 30.2693 48.812C29.9573 49.28 29.5313 49.628 28.9913 49.856C28.4513 50.072 27.9173 50.18 27.3893 50.18C26.8613 50.18 26.3693 50.09 25.9133 49.91C25.4573 49.73 25.0913 49.46 24.8153 49.1C24.5513 48.728 24.4193 48.272 24.4193 47.732C24.4193 47.06 24.6413 46.508 25.0853 46.076C25.5413 45.632 26.1713 45.332 26.9753 45.176L30.2513 44.528V44.186ZM25.8953 47.66C25.8953 48.032 26.0393 48.338 26.3273 48.578C26.6273 48.806 27.0473 48.92 27.5873 48.92C28.0553 48.92 28.4873 48.842 28.8833 48.686C29.2913 48.518 29.6213 48.272 29.8733 47.948C30.1253 47.612 30.2513 47.186 30.2513 46.67V45.716L27.6413 46.256C27.0533 46.376 26.6153 46.544 26.3273 46.76C26.0393 46.976 25.8953 47.276 25.8953 47.66ZM36.5586 36.86V47.714C36.5586 48.17 36.6426 48.488 36.8106 48.668C36.9786 48.836 37.2486 48.92 37.6206 48.92C37.8606 48.92 38.0586 48.902 38.2146 48.866C38.3706 48.83 38.5806 48.764 38.8446 48.668L38.6106 49.928C38.2146 50.096 37.7706 50.18 37.2786 50.18C35.8386 50.18 35.1186 49.376 35.1186 47.768V36.86H36.5586ZM47.6335 41L43.4035 51.512C43.0555 52.388 42.6595 53 42.2155 53.348C41.7835 53.696 41.2495 53.87 40.6135 53.87C40.2055 53.87 39.8275 53.81 39.4795 53.69C39.1435 53.582 38.8435 53.432 38.5795 53.24L38.9755 51.98C39.2155 52.196 39.4675 52.352 39.7315 52.448C40.0075 52.556 40.2775 52.61 40.5415 52.61C40.8535 52.61 41.1475 52.514 41.4235 52.322C41.6995 52.13 41.9515 51.74 42.1795 51.152L42.6475 49.982L41.7475 47.84L38.8855 41H40.5235L42.7735 46.868L43.3315 48.47L43.9795 46.688L46.0855 41H47.6335ZM48.8688 50V48.902L53.5848 43.376L54.7188 42.206L53.1168 42.242H48.9228V41H56.3208V42.098L51.6048 47.624L50.4888 48.794L52.2348 48.758H56.4648V50H48.8688ZM62.7534 50.18C61.9014 50.18 61.1394 49.994 60.4674 49.622C59.8074 49.25 59.2914 48.716 58.9194 48.02C58.5474 47.312 58.3614 46.472 58.3614 45.5C58.3614 44.528 58.5474 43.694 58.9194 42.998C59.2914 42.29 59.8014 41.75 60.4494 41.378C61.0974 41.006 61.8354 40.82 62.6634 40.82C63.5034 40.82 64.2174 41 64.8054 41.36C65.4054 41.72 65.8614 42.212 66.1734 42.836C66.4854 43.448 66.6414 44.138 66.6414 44.906C66.6414 45.11 66.6354 45.296 66.6234 45.464C66.6114 45.632 66.5934 45.782 66.5694 45.914H59.7834C59.8554 46.862 60.1494 47.6 60.6654 48.128C61.1814 48.656 61.8654 48.92 62.7174 48.92C63.3774 48.92 63.9114 48.794 64.3194 48.542C64.7394 48.29 65.0754 47.948 65.3274 47.516L66.4614 48.182C66.1254 48.794 65.6394 49.28 65.0034 49.64C64.3794 50 63.6294 50.18 62.7534 50.18ZM62.6274 42.08C61.8714 42.08 61.2474 42.308 60.7554 42.764C60.2754 43.208 59.9694 43.832 59.8374 44.636H65.2014C65.1654 43.82 64.9134 43.19 64.4454 42.746C63.9774 42.302 63.3714 42.08 62.6274 42.08Z" fill="#013A4C"/>
<defs>
<clipPath id="clip0_1_564">
<rect width="24" height="24" fill="white" transform="translate(22 1)"/>
</clipPath>
</defs>
</svg>
