<svg width="38" height="57" viewBox="0 0 38 57" fill="none" xmlns="http://www.w3.org/2000/svg">
<g clip-path="url(#clip0_1_557)">
<path d="M16.1685 13.0089L7.58423 21.5931L10.4127 24.4216L18.9969 15.8373L16.1685 13.0089Z" fill="#013A4C"/>
<path d="M27.5885 1.57844L19.0042 10.1627L21.8326 12.9911L30.4169 4.40687L27.5885 1.57844Z" fill="#013A4C"/>
<path d="M10.4346 1.57245L7.60614 4.40088L16.1904 12.9852L19.0188 10.1567L10.4346 1.57245Z" fill="#013A4C"/>
<path d="M21.8408 12.9825L19.0123 15.8109L27.5966 24.3952L30.425 21.5668L21.8408 12.9825Z" fill="#013A4C"/>
</g>
<path d="M6.28539 37.94C7.32939 37.94 8.22939 38.156 8.98539 38.588C9.74139 39.008 10.3714 39.632 10.8754 40.46L9.66939 41.396C9.22539 40.628 8.72139 40.088 8.15739 39.776C7.60539 39.452 6.93339 39.29 6.14139 39.29C5.18139 39.29 4.47939 39.482 4.03539 39.866C3.59139 40.25 3.36939 40.718 3.36939 41.27C3.36939 41.69 3.50139 42.062 3.76539 42.386C4.02939 42.698 4.55739 42.944 5.34939 43.124L7.92339 43.7C9.06339 43.952 9.85539 44.336 10.2994 44.852C10.7554 45.356 10.9834 45.986 10.9834 46.742C10.9834 47.414 10.7914 48.014 10.4074 48.542C10.0354 49.058 9.50739 49.46 8.82339 49.748C8.13939 50.036 7.33539 50.18 6.41139 50.18C5.12739 50.18 4.06539 49.928 3.22539 49.424C2.38539 48.908 1.74339 48.284 1.29939 47.552L2.55939 46.526C2.90739 47.21 3.39939 47.768 4.03539 48.2C4.68339 48.62 5.50539 48.83 6.50139 48.83C7.42539 48.83 8.15139 48.662 8.67939 48.326C9.21939 47.99 9.48939 47.504 9.48939 46.868C9.48939 46.484 9.36339 46.142 9.11139 45.842C8.85939 45.53 8.38539 45.296 7.68939 45.14L4.89939 44.51C3.79539 44.27 3.00939 43.88 2.54139 43.34C2.08539 42.8 1.85739 42.176 1.85739 41.468C1.85739 40.832 2.03139 40.25 2.37939 39.722C2.73939 39.182 3.24939 38.75 3.90939 38.426C4.58139 38.102 5.37339 37.94 6.28539 37.94ZM14.3628 39.272C14.0388 39.272 13.7748 39.176 13.5708 38.984C13.3788 38.78 13.2828 38.516 13.2828 38.192C13.2828 37.868 13.3788 37.61 13.5708 37.418C13.7748 37.214 14.0388 37.112 14.3628 37.112C14.6868 37.112 14.9448 37.214 15.1368 37.418C15.3408 37.61 15.4428 37.868 15.4428 38.192C15.4428 38.516 15.3408 38.78 15.1368 38.984C14.9448 39.176 14.6868 39.272 14.3628 39.272ZM15.0828 41V50H13.6428V41H15.0828ZM23.266 48.848C24.118 48.848 24.784 49.046 25.264 49.442C25.744 49.826 25.984 50.342 25.984 50.99C25.984 51.578 25.786 52.088 25.39 52.52C25.006 52.952 24.484 53.282 23.824 53.51C23.176 53.75 22.444 53.87 21.628 53.87C20.212 53.87 19.15 53.63 18.442 53.15C17.746 52.67 17.398 52.094 17.398 51.422C17.398 51.014 17.512 50.642 17.74 50.306C17.968 49.97 18.346 49.73 18.874 49.586C18.586 49.454 18.352 49.274 18.172 49.046C17.992 48.806 17.902 48.488 17.902 48.092C17.902 47.72 18.01 47.384 18.226 47.084C18.442 46.772 18.766 46.532 19.198 46.364C18.742 46.1 18.394 45.752 18.154 45.32C17.914 44.888 17.794 44.402 17.794 43.862C17.794 43.262 17.95 42.734 18.262 42.278C18.586 41.822 19.024 41.468 19.576 41.216C20.128 40.952 20.764 40.82 21.484 40.82C22.24 40.82 22.918 40.97 23.518 41.27C23.602 40.67 23.866 40.202 24.31 39.866C24.766 39.518 25.3 39.344 25.912 39.344H26.002L26.326 40.622H26.2C25.648 40.622 25.216 40.724 24.904 40.928C24.592 41.132 24.418 41.45 24.382 41.882C24.91 42.434 25.174 43.094 25.174 43.862C25.174 44.45 25.018 44.978 24.706 45.446C24.394 45.902 23.956 46.262 23.392 46.526C22.84 46.778 22.204 46.904 21.484 46.904C21.04 46.904 20.626 46.862 20.242 46.778C19.882 46.886 19.624 47.036 19.468 47.228C19.312 47.42 19.234 47.63 19.234 47.858C19.234 48.518 19.702 48.848 20.638 48.848H23.266ZM21.484 41.99C20.86 41.99 20.338 42.164 19.918 42.512C19.498 42.848 19.288 43.298 19.288 43.862C19.288 44.414 19.498 44.864 19.918 45.212C20.338 45.56 20.86 45.734 21.484 45.734C22.108 45.734 22.63 45.56 23.05 45.212C23.47 44.864 23.68 44.414 23.68 43.862C23.68 43.298 23.47 42.848 23.05 42.512C22.63 42.164 22.108 41.99 21.484 41.99ZM21.61 52.664C22.654 52.664 23.422 52.508 23.914 52.196C24.406 51.896 24.652 51.548 24.652 51.152C24.652 50.828 24.52 50.57 24.256 50.378C24.004 50.186 23.542 50.09 22.87 50.09H20.098C19.714 50.09 19.39 50.186 19.126 50.378C18.862 50.582 18.73 50.858 18.73 51.206C18.73 51.65 18.982 52.004 19.486 52.268C20.002 52.532 20.71 52.664 21.61 52.664ZM28.0041 50V41H29.2641L29.3541 42.404C29.6661 41.84 30.0921 41.438 30.6321 41.198C31.1721 40.946 31.7541 40.82 32.3781 40.82C33.0261 40.82 33.6141 40.946 34.1421 41.198C34.6701 41.438 35.0901 41.81 35.4021 42.314C35.7261 42.818 35.8881 43.46 35.8881 44.24V50H34.4481V44.744C34.4481 43.748 34.2321 43.058 33.8001 42.674C33.3801 42.278 32.8581 42.08 32.2341 42.08C31.8021 42.08 31.3701 42.182 30.9381 42.386C30.5061 42.59 30.1461 42.92 29.8581 43.376C29.5821 43.832 29.4441 44.444 29.4441 45.212V50H28.0041Z" fill="#013A4C"/>
<defs>
<clipPath id="clip0_1_557">
<rect width="24" height="24" fill="white" transform="translate(7 1)"/>
</clipPath>
</defs>
</svg>
