<svg width="79" height="57" viewBox="0 0 79 57" fill="none" xmlns="http://www.w3.org/2000/svg">
<path d="M3.56173 38.12V50H2.12173V38.12H3.56173ZM7.09002 50V41H8.35002L8.44002 42.404C8.75202 41.84 9.17802 41.438 9.71802 41.198C10.258 40.946 10.84 40.82 11.464 40.82C12.112 40.82 12.7 40.946 13.228 41.198C13.756 41.438 14.176 41.81 14.488 42.314C14.812 42.818 14.974 43.46 14.974 44.24V50H13.534V44.744C13.534 43.748 13.318 43.058 12.886 42.674C12.466 42.278 11.944 42.08 11.32 42.08C10.888 42.08 10.456 42.182 10.024 42.386C9.59202 42.59 9.23202 42.92 8.94402 43.376C8.66802 43.832 8.53002 44.444 8.53002 45.212V50H7.09002ZM23.5115 41V42.242H20.2355V47.516C20.2355 47.96 20.3615 48.29 20.6135 48.506C20.8655 48.722 21.1895 48.83 21.5855 48.83C21.9335 48.83 22.2335 48.77 22.4855 48.65C22.7375 48.53 22.9655 48.368 23.1695 48.164L23.6735 49.37C23.3975 49.622 23.0675 49.82 22.6835 49.964C22.3115 50.108 21.8795 50.18 21.3875 50.18C20.9315 50.18 20.5055 50.102 20.1095 49.946C19.7135 49.778 19.3955 49.52 19.1555 49.172C18.9275 48.812 18.8075 48.344 18.7955 47.768V42.242H16.9955V41H18.7955V38.84L20.2355 38.444V41H23.5115ZM29.4145 50.18C28.5625 50.18 27.8005 49.994 27.1285 49.622C26.4685 49.25 25.9525 48.716 25.5805 48.02C25.2085 47.312 25.0225 46.472 25.0225 45.5C25.0225 44.528 25.2085 43.694 25.5805 42.998C25.9525 42.29 26.4625 41.75 27.1105 41.378C27.7585 41.006 28.4965 40.82 29.3245 40.82C30.1645 40.82 30.8785 41 31.4665 41.36C32.0665 41.72 32.5225 42.212 32.8345 42.836C33.1465 43.448 33.3025 44.138 33.3025 44.906C33.3025 45.11 33.2965 45.296 33.2845 45.464C33.2725 45.632 33.2545 45.782 33.2305 45.914H26.4445C26.5165 46.862 26.8105 47.6 27.3265 48.128C27.8425 48.656 28.5265 48.92 29.3785 48.92C30.0385 48.92 30.5725 48.794 30.9805 48.542C31.4005 48.29 31.7365 47.948 31.9885 47.516L33.1225 48.182C32.7865 48.794 32.3005 49.28 31.6645 49.64C31.0405 50 30.2905 50.18 29.4145 50.18ZM29.2885 42.08C28.5325 42.08 27.9085 42.308 27.4165 42.764C26.9365 43.208 26.6305 43.832 26.4985 44.636H31.8625C31.8265 43.82 31.5745 43.19 31.1065 42.746C30.6385 42.302 30.0325 42.08 29.2885 42.08ZM40.8832 48.848C41.7352 48.848 42.4012 49.046 42.8812 49.442C43.3612 49.826 43.6012 50.342 43.6012 50.99C43.6012 51.578 43.4032 52.088 43.0072 52.52C42.6232 52.952 42.1012 53.282 41.4412 53.51C40.7932 53.75 40.0612 53.87 39.2452 53.87C37.8292 53.87 36.7672 53.63 36.0592 53.15C35.3632 52.67 35.0152 52.094 35.0152 51.422C35.0152 51.014 35.1292 50.642 35.3572 50.306C35.5852 49.97 35.9632 49.73 36.4912 49.586C36.2032 49.454 35.9692 49.274 35.7892 49.046C35.6092 48.806 35.5192 48.488 35.5192 48.092C35.5192 47.72 35.6272 47.384 35.8432 47.084C36.0592 46.772 36.3832 46.532 36.8152 46.364C36.3592 46.1 36.0112 45.752 35.7712 45.32C35.5312 44.888 35.4112 44.402 35.4112 43.862C35.4112 43.262 35.5672 42.734 35.8792 42.278C36.2032 41.822 36.6412 41.468 37.1932 41.216C37.7452 40.952 38.3812 40.82 39.1012 40.82C39.8572 40.82 40.5352 40.97 41.1352 41.27C41.2192 40.67 41.4832 40.202 41.9272 39.866C42.3832 39.518 42.9172 39.344 43.5292 39.344H43.6192L43.9432 40.622H43.8172C43.2652 40.622 42.8332 40.724 42.5212 40.928C42.2092 41.132 42.0352 41.45 41.9992 41.882C42.5272 42.434 42.7912 43.094 42.7912 43.862C42.7912 44.45 42.6352 44.978 42.3232 45.446C42.0112 45.902 41.5732 46.262 41.0092 46.526C40.4572 46.778 39.8212 46.904 39.1012 46.904C38.6572 46.904 38.2432 46.862 37.8592 46.778C37.4992 46.886 37.2412 47.036 37.0852 47.228C36.9292 47.42 36.8512 47.63 36.8512 47.858C36.8512 48.518 37.3192 48.848 38.2552 48.848H40.8832ZM39.1012 41.99C38.4772 41.99 37.9552 42.164 37.5352 42.512C37.1152 42.848 36.9052 43.298 36.9052 43.862C36.9052 44.414 37.1152 44.864 37.5352 45.212C37.9552 45.56 38.4772 45.734 39.1012 45.734C39.7252 45.734 40.2472 45.56 40.6672 45.212C41.0872 44.864 41.2972 44.414 41.2972 43.862C41.2972 43.298 41.0872 42.848 40.6672 42.512C40.2472 42.164 39.7252 41.99 39.1012 41.99ZM39.2272 52.664C40.2712 52.664 41.0392 52.508 41.5312 52.196C42.0232 51.896 42.2692 51.548 42.2692 51.152C42.2692 50.828 42.1372 50.57 41.8732 50.378C41.6212 50.186 41.1592 50.09 40.4872 50.09H37.7152C37.3312 50.09 37.0072 50.186 36.7432 50.378C36.4792 50.582 36.3472 50.858 36.3472 51.206C36.3472 51.65 36.5992 52.004 37.1032 52.268C37.6192 52.532 38.3272 52.664 39.2272 52.664ZM45.6213 50V41H46.7913L46.9893 42.476C47.4933 41.372 48.4533 40.82 49.8693 40.82C50.0253 40.82 50.1933 40.832 50.3733 40.856C50.5653 40.88 50.7273 40.928 50.8593 41L50.6073 42.314C50.4753 42.266 50.3313 42.23 50.1753 42.206C50.0193 42.182 49.7973 42.17 49.5093 42.17C49.1373 42.17 48.7593 42.278 48.3753 42.494C48.0033 42.71 47.6913 43.04 47.4393 43.484C47.1873 43.916 47.0613 44.468 47.0613 45.14V50H45.6213ZM57.9788 44.186C57.9788 43.514 57.7988 42.998 57.4388 42.638C57.0788 42.266 56.5688 42.08 55.9088 42.08C55.2848 42.08 54.7568 42.218 54.3248 42.494C53.8928 42.758 53.5748 43.19 53.3708 43.79L52.2008 43.07C52.4408 42.398 52.8848 41.858 53.5328 41.45C54.1808 41.03 54.9848 40.82 55.9448 40.82C56.5928 40.82 57.1808 40.934 57.7088 41.162C58.2368 41.378 58.6508 41.714 58.9508 42.17C59.2628 42.614 59.4188 43.19 59.4188 43.898V48.254C59.4188 48.686 59.6468 48.902 60.1028 48.902C60.3308 48.902 60.5528 48.872 60.7688 48.812L60.6968 49.946C60.4568 50.066 60.1448 50.126 59.7608 50.126C59.3168 50.126 58.9328 50.018 58.6088 49.802C58.2968 49.586 58.0928 49.256 57.9968 48.812C57.6848 49.28 57.2588 49.628 56.7188 49.856C56.1788 50.072 55.6448 50.18 55.1168 50.18C54.5888 50.18 54.0968 50.09 53.6408 49.91C53.1848 49.73 52.8188 49.46 52.5428 49.1C52.2788 48.728 52.1468 48.272 52.1468 47.732C52.1468 47.06 52.3688 46.508 52.8128 46.076C53.2688 45.632 53.8988 45.332 54.7028 45.176L57.9788 44.528V44.186ZM53.6228 47.66C53.6228 48.032 53.7668 48.338 54.0548 48.578C54.3548 48.806 54.7748 48.92 55.3148 48.92C55.7828 48.92 56.2148 48.842 56.6108 48.686C57.0188 48.518 57.3488 48.272 57.6008 47.948C57.8528 47.612 57.9788 47.186 57.9788 46.67V45.716L55.3688 46.256C54.7808 46.376 54.3428 46.544 54.0548 46.76C53.7668 46.976 53.6228 47.276 53.6228 47.66ZM67.9666 41V42.242H64.6906V47.516C64.6906 47.96 64.8166 48.29 65.0686 48.506C65.3206 48.722 65.6446 48.83 66.0406 48.83C66.3886 48.83 66.6886 48.77 66.9406 48.65C67.1926 48.53 67.4206 48.368 67.6246 48.164L68.1286 49.37C67.8526 49.622 67.5226 49.82 67.1386 49.964C66.7666 50.108 66.3346 50.18 65.8426 50.18C65.3866 50.18 64.9606 50.102 64.5646 49.946C64.1686 49.778 63.8506 49.52 63.6106 49.172C63.3826 48.812 63.2626 48.344 63.2506 47.768V42.242H61.4506V41H63.2506V38.84L64.6906 38.444V41H67.9666ZM73.8696 50.18C73.0176 50.18 72.2556 49.994 71.5836 49.622C70.9236 49.25 70.4076 48.716 70.0356 48.02C69.6636 47.312 69.4776 46.472 69.4776 45.5C69.4776 44.528 69.6636 43.694 70.0356 42.998C70.4076 42.29 70.9176 41.75 71.5656 41.378C72.2136 41.006 72.9516 40.82 73.7796 40.82C74.6196 40.82 75.3336 41 75.9216 41.36C76.5216 41.72 76.9776 42.212 77.2896 42.836C77.6016 43.448 77.7576 44.138 77.7576 44.906C77.7576 45.11 77.7516 45.296 77.7396 45.464C77.7276 45.632 77.7096 45.782 77.6856 45.914H70.8996C70.9716 46.862 71.2656 47.6 71.7816 48.128C72.2976 48.656 72.9816 48.92 73.8336 48.92C74.4936 48.92 75.0276 48.794 75.4356 48.542C75.8556 48.29 76.1916 47.948 76.4436 47.516L77.5776 48.182C77.2416 48.794 76.7556 49.28 76.1196 49.64C75.4956 50 74.7456 50.18 73.8696 50.18ZM73.7436 42.08C72.9876 42.08 72.3636 42.308 71.8716 42.764C71.3916 43.208 71.0856 43.832 70.9536 44.636H76.3176C76.2816 43.82 76.0296 43.19 75.5616 42.746C75.0936 42.302 74.4876 42.08 73.7436 42.08Z" fill="#013A4C"/>
<g clip-path="url(#clip0_1_593)">
<path d="M44.9617 15.1485L42.1333 17.9769L48.5821 24.4257L51.4105 21.5973L44.9617 15.1485Z" fill="#013A4C"/>
<path d="M31.412 1.58136L28.5836 4.40979L35.0324 10.8586L37.8609 8.03018L31.412 1.58136Z" fill="#013A4C"/>
<path d="M35.0307 15.1398L28.5819 21.5886L31.4103 24.4171L37.8591 17.9682L35.0307 15.1398Z" fill="#013A4C"/>
<path d="M48.5837 1.59013L42.1349 8.03894L44.9633 10.8674L51.4121 4.41855L48.5837 1.59013Z" fill="#013A4C"/>
</g>
<defs>
<clipPath id="clip0_1_593">
<rect width="24" height="24" fill="white" transform="translate(28 1)"/>
</clipPath>
</defs>
</svg>
