<svg width="66" height="57" viewBox="0 0 66 57" fill="none" xmlns="http://www.w3.org/2000/svg">
<path d="M14.1556 38.78V50H12.8636V42.945L13.0166 39.987H12.9996L9.31063 50H8.15463L4.46563 39.987H4.44863L4.60163 42.945V50H3.30963V38.78H5.40063L7.86563 45.597L8.71563 48.402H8.74963L9.61663 45.614L12.0646 38.78H14.1556ZM22.4288 44.509C22.4288 43.8743 22.2588 43.387 21.9188 43.047C21.5788 42.6957 21.0971 42.52 20.4738 42.52C19.8845 42.52 19.3858 42.6503 18.9778 42.911C18.5698 43.1603 18.2695 43.5683 18.0768 44.135L16.9718 43.455C17.1985 42.8203 17.6178 42.3103 18.2298 41.925C18.8418 41.5283 19.6011 41.33 20.5078 41.33C21.1198 41.33 21.6751 41.4377 22.1738 41.653C22.6725 41.857 23.0635 42.1743 23.3468 42.605C23.6415 43.0243 23.7888 43.5683 23.7888 44.237V48.351C23.7888 48.759 24.0041 48.963 24.4348 48.963C24.6501 48.963 24.8598 48.9347 25.0638 48.878L24.9958 49.949C24.7691 50.0623 24.4745 50.119 24.1118 50.119C23.6925 50.119 23.3298 50.017 23.0238 49.813C22.7291 49.609 22.5365 49.2973 22.4458 48.878C22.1511 49.32 21.7488 49.6487 21.2388 49.864C20.7288 50.068 20.2245 50.17 19.7258 50.17C19.2271 50.17 18.7625 50.085 18.3318 49.915C17.9011 49.745 17.5555 49.49 17.2948 49.15C17.0455 48.7987 16.9208 48.368 16.9208 47.858C16.9208 47.2233 17.1305 46.702 17.5498 46.294C17.9805 45.8747 18.5755 45.5913 19.3348 45.444L22.4288 44.832V44.509ZM18.3148 47.79C18.3148 48.1413 18.4508 48.4303 18.7228 48.657C19.0061 48.8723 19.4028 48.98 19.9128 48.98C20.3548 48.98 20.7628 48.9063 21.1368 48.759C21.5221 48.6003 21.8338 48.368 22.0718 48.062C22.3098 47.7447 22.4288 47.3423 22.4288 46.855V45.954L19.9638 46.464C19.4085 46.5773 18.9948 46.736 18.7228 46.94C18.4508 47.144 18.3148 47.4273 18.3148 47.79ZM27.0937 50V41.5H28.2837L28.3687 42.826C28.6634 42.2933 29.0657 41.9137 29.5757 41.687C30.0857 41.449 30.6354 41.33 31.2247 41.33C31.8367 41.33 32.392 41.449 32.8907 41.687C33.3894 41.9137 33.786 42.265 34.0807 42.741C34.3867 43.217 34.5397 43.8233 34.5397 44.56V50H33.1797V45.036C33.1797 44.0953 32.9757 43.4437 32.5677 43.081C32.171 42.707 31.678 42.52 31.0887 42.52C30.6807 42.52 30.2727 42.6163 29.8647 42.809C29.4567 43.0017 29.1167 43.3133 28.8447 43.744C28.584 44.1747 28.4537 44.7527 28.4537 45.478V50H27.0937ZM42.5831 44.509C42.5831 43.8743 42.4131 43.387 42.0731 43.047C41.7331 42.6957 41.2514 42.52 40.6281 42.52C40.0388 42.52 39.5401 42.6503 39.1321 42.911C38.7241 43.1603 38.4238 43.5683 38.2311 44.135L37.1261 43.455C37.3528 42.8203 37.7721 42.3103 38.3841 41.925C38.9961 41.5283 39.7554 41.33 40.6621 41.33C41.2741 41.33 41.8294 41.4377 42.3281 41.653C42.8268 41.857 43.2178 42.1743 43.5011 42.605C43.7958 43.0243 43.9431 43.5683 43.9431 44.237V48.351C43.9431 48.759 44.1584 48.963 44.5891 48.963C44.8044 48.963 45.0141 48.9347 45.2181 48.878L45.1501 49.949C44.9234 50.0623 44.6288 50.119 44.2661 50.119C43.8468 50.119 43.4841 50.017 43.1781 49.813C42.8834 49.609 42.6908 49.2973 42.6001 48.878C42.3054 49.32 41.9031 49.6487 41.3931 49.864C40.8831 50.068 40.3788 50.17 39.8801 50.17C39.3814 50.17 38.9168 50.085 38.4861 49.915C38.0554 49.745 37.7098 49.49 37.4491 49.15C37.1998 48.7987 37.0751 48.368 37.0751 47.858C37.0751 47.2233 37.2848 46.702 37.7041 46.294C38.1348 45.8747 38.7298 45.5913 39.4891 45.444L42.5831 44.832V44.509ZM38.4691 47.79C38.4691 48.1413 38.6051 48.4303 38.8771 48.657C39.1604 48.8723 39.5571 48.98 40.0671 48.98C40.5091 48.98 40.9171 48.9063 41.2911 48.759C41.6764 48.6003 41.9881 48.368 42.2261 48.062C42.4641 47.7447 42.5831 47.3423 42.5831 46.855V45.954L40.1181 46.464C39.5628 46.5773 39.1491 46.736 38.8771 46.94C38.6051 47.144 38.4691 47.4273 38.4691 47.79ZM51.821 48.912C52.6257 48.912 53.2547 49.099 53.708 49.473C54.1613 49.8357 54.388 50.323 54.388 50.935C54.388 51.4903 54.201 51.972 53.827 52.38C53.4643 52.788 52.9713 53.0997 52.348 53.315C51.736 53.5417 51.0447 53.655 50.274 53.655C48.9367 53.655 47.9337 53.4283 47.265 52.975C46.6077 52.5217 46.279 51.9777 46.279 51.343C46.279 50.9577 46.3867 50.6063 46.602 50.289C46.8173 49.9717 47.1743 49.745 47.673 49.609C47.401 49.4843 47.18 49.3143 47.01 49.099C46.84 48.8723 46.755 48.572 46.755 48.198C46.755 47.8467 46.857 47.5293 47.061 47.246C47.265 46.9513 47.571 46.7247 47.979 46.566C47.5483 46.3167 47.2197 45.988 46.993 45.58C46.7663 45.172 46.653 44.713 46.653 44.203C46.653 43.6363 46.8003 43.1377 47.095 42.707C47.401 42.2763 47.8147 41.942 48.336 41.704C48.8573 41.4547 49.458 41.33 50.138 41.33C50.852 41.33 51.4923 41.4717 52.059 41.755C52.1383 41.1883 52.3877 40.7463 52.807 40.429C53.2377 40.1003 53.742 39.936 54.32 39.936H54.405L54.711 41.143H54.592C54.0707 41.143 53.6627 41.2393 53.368 41.432C53.0733 41.6247 52.909 41.925 52.875 42.333C53.3737 42.8543 53.623 43.4777 53.623 44.203C53.623 44.7583 53.4757 45.257 53.181 45.699C52.8863 46.1297 52.4727 46.4697 51.94 46.719C51.4187 46.957 50.818 47.076 50.138 47.076C49.7187 47.076 49.3277 47.0363 48.965 46.957C48.625 47.059 48.3813 47.2007 48.234 47.382C48.0867 47.5633 48.013 47.7617 48.013 47.977C48.013 48.6003 48.455 48.912 49.339 48.912H51.821ZM50.138 42.435C49.5487 42.435 49.0557 42.5993 48.659 42.928C48.2623 43.2453 48.064 43.6703 48.064 44.203C48.064 44.7243 48.2623 45.1493 48.659 45.478C49.0557 45.8067 49.5487 45.971 50.138 45.971C50.7273 45.971 51.2203 45.8067 51.617 45.478C52.0137 45.1493 52.212 44.7243 52.212 44.203C52.212 43.6703 52.0137 43.2453 51.617 42.928C51.2203 42.5993 50.7273 42.435 50.138 42.435ZM50.257 52.516C51.243 52.516 51.9683 52.3687 52.433 52.074C52.8977 51.7907 53.13 51.462 53.13 51.088C53.13 50.782 53.0053 50.5383 52.756 50.357C52.518 50.1757 52.0817 50.085 51.447 50.085H48.829C48.4663 50.085 48.1603 50.1757 47.911 50.357C47.6617 50.5497 47.537 50.8103 47.537 51.139C47.537 51.5583 47.775 51.8927 48.251 52.142C48.7383 52.3913 49.407 52.516 50.257 52.516ZM59.8488 50.17C59.0442 50.17 58.3245 49.9943 57.6898 49.643C57.0665 49.2917 56.5792 48.7873 56.2278 48.13C55.8765 47.4613 55.7008 46.668 55.7008 45.75C55.7008 44.832 55.8765 44.0443 56.2278 43.387C56.5792 42.7183 57.0608 42.2083 57.6728 41.857C58.2848 41.5057 58.9818 41.33 59.7638 41.33C60.5572 41.33 61.2315 41.5 61.7868 41.84C62.3535 42.18 62.7842 42.6447 63.0788 43.234C63.3735 43.812 63.5208 44.4637 63.5208 45.189C63.5208 45.3817 63.5152 45.5573 63.5038 45.716C63.4925 45.8747 63.4755 46.0163 63.4528 46.141H57.0438C57.1118 47.0363 57.3895 47.7333 57.8768 48.232C58.3642 48.7307 59.0102 48.98 59.8148 48.98C60.4382 48.98 60.9425 48.861 61.3278 48.623C61.7245 48.385 62.0418 48.062 62.2798 47.654L63.3508 48.283C63.0335 48.861 62.5745 49.32 61.9738 49.66C61.3845 50 60.6762 50.17 59.8488 50.17ZM59.7298 42.52C59.0158 42.52 58.4265 42.7353 57.9618 43.166C57.5085 43.5853 57.2195 44.1747 57.0948 44.934H62.1608C62.1268 44.1633 61.8888 43.5683 61.4468 43.149C61.0048 42.7297 60.4325 42.52 59.7298 42.52Z" fill="#013A4C"/>
<g clip-path="url(#clip0_1_582)">
<path d="M35 1H31V5H35V1Z" fill="#013A4C"/>
<path d="M45 10.98H41V14.98H45V10.98Z" fill="#013A4C"/>
<path d="M25 10.98H21V14.98H25V10.98Z" fill="#013A4C"/>
<path d="M35 21H31V25H35V21Z" fill="#013A4C"/>
<path d="M40.0706 3.10309L37.2421 5.93152L40.0706 8.75995L42.899 5.93152L40.0706 3.10309Z" fill="#013A4C"/>
<path d="M40.079 17.2375L37.2506 20.0659L40.079 22.8943L42.9075 20.0659L40.079 17.2375Z" fill="#013A4C"/>
<path d="M25.9421 3.08747L23.1136 5.91589L25.9421 8.74432L28.7705 5.91589L25.9421 3.08747Z" fill="#013A4C"/>
<path d="M25.9305 17.2401L23.1021 20.0685L25.9305 22.8969L28.759 20.0685L25.9305 17.2401Z" fill="#013A4C"/>
</g>
<defs>
<clipPath id="clip0_1_582">
<rect width="24" height="24" fill="white" transform="translate(21 1)"/>
</clipPath>
</defs>
</svg>
